<?xml version="1.0" encoding="utf-8"?>
<!-- Generator: Adobe Illustrator 20.1.0, SVG Export Plug-In . SVG Version: 6.00 Build 0)  -->
<svg version="1.1" id="Слой_1" xmlns="http://www.w3.org/2000/svg" xmlns:xlink="http://www.w3.org/1999/xlink" x="0px" y="0px"
	 viewBox="0 0 162 76" style="enable-background:new 0 0 162 76;" xml:space="preserve">
<style type="text/css">
	.st0{fill:#AD5446;}
</style>
<path class="st0" d="M0,66C0,44,0,22,0,0c52,0,104,0,156,0c1.1,14.6,2.2,29.2,3.4,43.8c0.7,7.8,1.7,15.5,2.6,23.2c0,3,0,6,0,9
	c-4.7,0-9.3,0-14,0c-1.8-0.3-3.5-0.9-5.3-1c-17.3-0.8-34.6-1.5-51.9-2.2C63,71.6,35.3,70.4,7.5,68.9C5,68.8,2.5,67,0,66z"/>
</svg>
