<?xml version="1.0" encoding="iso-8859-1"?>
<!-- Generator: Adobe Illustrator 20.1.0, SVG Export Plug-In . SVG Version: 6.00 Build 0)  -->
<svg version="1.1" id="&#x421;&#x43B;&#x43E;&#x439;_1"
	 xmlns="http://www.w3.org/2000/svg" xmlns:xlink="http://www.w3.org/1999/xlink" x="0px" y="0px" viewBox="0 0 799 151"
	 style="enable-background:new 0 0 799 151;" xml:space="preserve">
<g>
	<g>
		<path style="fill:#FCFCFC;" d="M-0.455,41.78c0-2.96,0-5.92,0-8.88c1.364,0.443,1.111-1.12,1.83-1.592
			c0.944-0.621,1.55-1.704,2.923-1.573c0.345,0.033,0.886,0.035,1.026-0.166c0.614-0.876,1.487-0.645,2.289-0.653
			c7.799-0.076,15.599-0.131,23.398-0.207c0.422-0.004,0.853-0.107,1.262-0.226c0.536-0.156,1.045-0.507,1.581-0.544
			c8.625-0.6,17.272,0.098,25.919-0.872c8.972-1.006,18.048-0.062,27.092-0.946c7.578-0.741,15.264-0.364,22.903-0.493
			c0.471-0.008,0.95-0.077,1.406-0.192c0.656-0.165,1.292-0.567,1.941-0.575c7.799-0.102,15.599-0.146,23.398-0.223
			c0.462-0.005,0.93-0.126,1.381-0.245c0.549-0.145,1.081-0.491,1.623-0.498c7.799-0.095,15.599-0.144,23.398-0.216
			c0.431-0.004,0.871-0.063,1.289-0.169c0.655-0.166,1.292-0.561,1.94-0.569c7.599-0.099,15.199-0.139,22.798-0.212
			c0.503-0.005,1.015-0.112,1.505-0.239c0.586-0.152,1.145-0.51,1.731-0.55c8.782-0.593,17.586,0.112,26.389-0.875
			c8.821-0.99,17.745-0.097,26.638-0.935c7.9-0.745,15.905-0.382,23.863-0.522c0.423-0.007,0.854-0.11,1.264-0.227
			c0.533-0.151,1.048-0.516,1.574-0.522c7.639-0.094,15.279-0.141,22.918-0.212c0.469-0.004,0.948-0.076,1.403-0.191
			c0.621-0.156,1.223-0.546,1.836-0.554c8.039-0.104,16.078-0.156,24.118-0.233c0.388-0.004,0.784-0.08,1.159-0.186
			c0.568-0.161,1.119-0.538,1.681-0.546c7.639-0.097,15.279-0.141,22.918-0.216c0.462-0.004,0.933-0.115,1.383-0.239
			c0.543-0.15,1.059-0.501,1.603-0.537c8.898-0.599,17.819,0.125,26.736-0.895c8.654-0.99,17.412-0.059,26.14-0.911
			c7.657-0.747,15.424-0.369,23.142-0.5c0.51-0.009,1.028-0.088,1.525-0.208c0.661-0.161,1.303-0.562,1.957-0.57
			c7.879-0.103,15.759-0.15,23.638-0.224c0.428-0.004,0.866-0.079,1.281-0.191c0.574-0.155,1.128-0.537,1.693-0.545
			c7.559-0.096,15.119-0.14,22.678-0.209c0.511-0.005,1.032-0.066,1.53-0.18c0.702-0.161,1.384-0.563,2.079-0.572
			c7.959-0.105,15.919-0.152,23.878-0.232c0.417-0.004,0.84-0.137,1.245-0.259c0.497-0.149,0.97-0.476,1.468-0.51
			c8.586-0.593,17.192,0.097,25.799-0.866c9.013-1.008,18.13-0.064,27.214-0.949c7.578-0.738,15.265-0.365,22.903-0.497
			c0.509-0.009,1.026-0.087,1.52-0.21c0.617-0.153,1.212-0.549,1.821-0.557c7.959-0.105,15.918-0.156,23.878-0.237
			c0.418-0.004,0.842-0.135,1.25-0.251c0.502-0.143,0.989-0.474,1.485-0.48c7.759-0.092,15.519-0.142,23.278-0.213
			c0.431-0.004,0.871-0.063,1.289-0.169c0.652-0.166,1.287-0.563,1.933-0.571c7.519-0.098,15.039-0.137,22.558-0.209
			c0.505-0.005,1.019-0.102,1.511-0.226c0.624-0.157,1.221-0.522,1.846-0.564c8.742-0.585,17.506,0.107,26.268-0.874
			c8.861-0.992,17.824-0.09,26.756-0.938c7.86-0.747,15.825-0.378,23.743-0.52c0.456-0.008,0.917-0.153,1.362-0.281
			c0.466-0.134,0.913-0.464,1.371-0.471c4.599-0.065,9.199-0.077,13.799-0.112c3.28-0.025,6.559-0.064,9.839-0.099
			c0.607-0.007,1.266,0.049,1.248-0.866c6.64,0,13.28,0,19.92,0c-0.224,0.627-0.118,0.979,0.663,0.973
			c0.404-0.003,0.901,0.074,1.195,0.313c0.556,0.452,0.928,1.14,1.501,1.56c0.867,0.636,1.705,1.222,1.755,2.428
			c0.008,0.188,0.069,0.518,0.158,0.537c1.018,0.22,0.682,1.032,0.696,1.629c0.035,1.479-0.001,2.959-0.022,4.439
			c-0.005,0.316,0.038,0.825-0.124,0.915c-1.026,0.57-0.681,1.541-0.741,2.358c-0.095,1.315-0.073,2.638-0.111,3.957
			c-0.008,0.275,0.036,0.701-0.113,0.797c-1.031,0.668-0.688,1.707-0.749,2.613c-0.081,1.196-0.044,2.399-0.103,3.597
			c-0.016,0.328-0.177,0.654-0.301,0.97c-0.178,0.454-0.49,0.882-0.558,1.349c-0.313,2.133-0.17,4.269-0.799,6.437
			c-0.755,2.604-0.186,5.481-1.124,8.169c-0.391,1.12-0.152,2.458-0.218,3.695c-0.019,0.356,0.022,0.907-0.175,1.03
			c-1.096,0.68-0.732,1.752-0.801,2.682c-0.088,1.195-0.059,2.398-0.097,3.597c-0.009,0.272-0.002,0.717-0.143,0.784
			c-0.878,0.416-0.664,1.201-0.695,1.881c-0.068,1.478-0.081,2.958-0.129,4.437c-0.009,0.273,0.019,0.702-0.13,0.79
			c-0.928,0.554-0.685,1.459-0.727,2.254c-0.07,1.317-0.053,2.639-0.104,3.957c-0.011,0.297-0.127,0.598-0.236,0.882
			c-0.2,0.522-0.568,1.019-0.621,1.551c-0.162,1.629,0.172,3.417-0.39,4.871c-0.77,1.992-0.519,3.98-0.776,5.96
			c-0.057,0.436,0.081,1.006-0.149,1.291c-0.933,1.155-0.586,2.504-0.717,3.776c-0.09,0.874-0.091,1.756-0.156,2.633
			c-0.02,0.27-0.044,0.706-0.195,0.773c-0.896,0.398-0.685,1.179-0.713,1.862c-0.057,1.398-0.071,2.798-0.111,4.197
			c-0.008,0.277,0.043,0.715-0.102,0.804c-1.104,0.678-0.69,1.772-0.767,2.7c-0.102,1.233-0.068,2.478-0.107,3.717
			c-0.009,0.272,0.012,0.702-0.137,0.787c-0.899,0.517-0.677,1.377-0.714,2.137c-0.064,1.318-0.049,2.639-0.104,3.957
			c-0.014,0.335-0.14,0.673-0.257,0.993c-0.192,0.526-0.553,1.026-0.606,1.561c-0.161,1.629,0.173,3.42-0.395,4.869
			c-0.723,1.842-0.523,3.659-0.736,5.485c-0.065,0.556,0.098,1.245-0.175,1.65c-1.004,1.49-0.57,3.152-0.754,4.736
			c-0.069,0.595-0.075,1.196-0.126,1.794c-0.02,0.236-0.011,0.609-0.142,0.678c-1.018,0.536-0.738,1.492-0.782,2.318
			c-0.069,1.277-0.049,2.559-0.105,3.837c-0.015,0.332-0.143,0.668-0.267,0.984c-0.161,0.411-0.427,0.786-0.549,1.205
			c-0.397,1.366,0.558,2.96-0.926,4.224c-0.42,0.358-0.4,1.326-1.111,1.911c-1.187,0.976-1.831,2.63-3.656,2.784
			c-0.113,0.01-0.312,0.066-0.318,0.117c-0.124,1.152-1.047,0.662-1.653,0.817c-0.378,0.097-0.764,0.173-1.129,0.305
			c-0.511,0.185-1.006,0.598-1.508,0.598c-17.199,0.006-34.398-0.023-51.598-0.06c-0.382-0.001-0.771-0.126-1.145-0.234
			c-0.508-0.147-1.003-0.479-1.505-0.482c-9.599-0.065-19.198-0.103-28.798-0.126c-17.919-0.042-35.838-0.069-53.758-0.115
			c-0.46-0.001-0.928-0.124-1.379-0.243c-0.512-0.135-1.007-0.474-1.512-0.477c-9.759-0.064-19.519-0.103-29.278-0.126
			c-17.799-0.042-35.598-0.069-53.398-0.115c-0.453-0.001-0.914-0.13-1.356-0.255c-0.463-0.131-0.907-0.471-1.361-0.475
			c-9.599-0.084-19.197-0.144-28.796-0.188c-9.559-0.043-19.121,0.058-28.678-0.127c-9.555-0.185-19.104-0.078-28.671-0.515
			c-14.292-0.652-28.632-0.167-42.948-0.384c-14.317-0.217-28.631,0.196-42.957-0.609c-11.566-0.65-23.191-0.249-34.79-0.305
			c-16.038-0.078-32.077-0.144-48.115-0.231c-0.539-0.003-1.086-0.135-1.613-0.268c-0.508-0.128-0.995-0.482-1.493-0.485
			c-15.599-0.069-31.198-0.111-46.797-0.15c-12.039-0.031-24.079-0.05-36.118-0.091c-0.58-0.002-1.166-0.133-1.737-0.263
			c-0.515-0.117-1.011-0.453-1.516-0.457c-8.239-0.06-16.478-0.092-24.718-0.111c-19.159-0.045-38.318-0.079-57.477-0.124
			c-0.391-0.001-0.793-0.036-1.171-0.132c-0.69-0.175-1.364-0.583-2.047-0.588c-10.919-0.075-21.838-0.112-32.758-0.138
			c-16.599-0.04-33.198-0.063-49.798-0.108c-0.493-0.001-0.995-0.128-1.477-0.256c-0.465-0.124-0.907-0.463-1.363-0.472
			c-3.359-0.066-6.719-0.075-10.078-0.098c-1.912-0.013-3.808-0.051-5.067-1.856c-0.292-0.418-0.593-0.842-0.958-1.193
			c-0.775-0.746-1.596-1.401-1.557-2.664c0.032-1.029,0.216-2.314-0.299-3.033c-0.598-0.833-0.569-1.584-0.605-2.408
			c-0.07-1.598-0.06-3.199-0.116-4.797c-0.012-0.338-0.135-0.682-0.261-1.002c-0.188-0.479-0.543-0.921-0.618-1.41
			c-0.392-2.566-0.287-5.149-0.792-7.757c-0.692-3.568-0.497-7.312-1.222-10.937c-0.248-1.239-0.118-2.551-0.181-3.829
			c-0.015-0.314-0.002-0.797-0.182-0.907c-0.925-0.567-0.671-1.454-0.701-2.25c-0.06-1.638-0.067-3.279-0.106-4.918
			c-0.008-0.316,0.049-0.803-0.121-0.916C5.308,91.33,5.645,90.3,5.6,89.396c-0.084-1.717-0.078-3.438-0.126-5.157
			c-0.01-0.355,0.035-0.898-0.163-1.03c-0.935-0.626-0.645-1.546-0.678-2.374c-0.064-1.598-0.06-3.199-0.113-4.797
			c-0.011-0.344-0.106-0.698-0.23-1.021c-0.198-0.518-0.58-0.995-0.661-1.524c-0.389-2.52-0.245-5.055-0.783-7.622
			c-0.862-4.114-0.915-8.397-1.297-12.61c-0.072-0.796-0.055-1.599-0.129-2.395c-0.028-0.297-0.191-0.583-0.304-0.869
			c-0.176-0.445-0.498-0.88-0.52-1.33c-0.098-1.996-0.126-3.997-0.148-5.996C0.441,42.027,0.252,41.665-0.455,41.78z"/>
		<path style="display:none;fill:#FFFFFF;" d="M772.585-0.22c0.018,0.914-0.641,0.859-1.248,0.866
			c-3.28,0.035-6.559,0.073-9.839,0.099c-4.6,0.036-9.2,0.047-13.799,0.112c-0.459,0.006-0.906,0.336-1.371,0.471
			c-0.445,0.128-0.906,0.273-1.362,0.281c-7.918,0.142-15.883-0.227-23.743,0.52c-8.932,0.848-17.895-0.054-26.756,0.938
			c-8.762,0.981-17.526,0.289-26.268,0.874c-0.624,0.042-1.221,0.406-1.846,0.564c-0.492,0.124-1.006,0.221-1.511,0.226
			c-7.519,0.071-15.039,0.111-22.558,0.209c-0.646,0.008-1.28,0.405-1.933,0.571c-0.417,0.106-0.858,0.166-1.289,0.169
			c-7.759,0.071-15.519,0.121-23.278,0.213c-0.496,0.006-0.983,0.337-1.485,0.48c-0.409,0.116-0.832,0.247-1.25,0.251
			c-7.959,0.081-15.919,0.132-23.878,0.237c-0.608,0.008-1.204,0.404-1.821,0.557c-0.495,0.122-1.012,0.201-1.52,0.21
			c-7.638,0.132-15.324-0.242-22.903,0.497c-9.084,0.885-18.201-0.058-27.214,0.949c-8.607,0.962-17.214,0.273-25.799,0.866
			c-0.498,0.034-0.971,0.361-1.468,0.51c-0.405,0.122-0.829,0.255-1.245,0.259c-7.959,0.08-15.919,0.126-23.878,0.232
			c-0.695,0.009-1.377,0.411-2.079,0.572c-0.498,0.114-1.018,0.175-1.53,0.18c-7.559,0.07-15.119,0.114-22.678,0.209
			c-0.566,0.007-1.12,0.39-1.693,0.545c-0.414,0.112-0.852,0.187-1.281,0.191c-7.879,0.074-15.759,0.121-23.638,0.224
			c-0.654,0.009-1.295,0.41-1.957,0.57c-0.496,0.12-1.015,0.2-1.525,0.208c-7.718,0.132-15.485-0.247-23.142,0.5
			c-8.728,0.852-17.486-0.079-26.14,0.911c-8.917,1.02-17.838,0.295-26.736,0.895c-0.543,0.037-1.059,0.387-1.603,0.537
			c-0.449,0.124-0.92,0.235-1.383,0.239c-7.639,0.074-15.279,0.119-22.918,0.216c-0.562,0.007-1.112,0.385-1.681,0.546
			c-0.375,0.106-0.771,0.183-1.159,0.186c-8.039,0.077-16.079,0.129-24.118,0.233c-0.614,0.008-1.215,0.398-1.836,0.554
			c-0.456,0.114-0.934,0.186-1.403,0.191c-7.639,0.071-15.279,0.118-22.918,0.212c-0.526,0.007-1.041,0.371-1.574,0.522
			c-0.411,0.117-0.841,0.219-1.264,0.227c-7.958,0.14-15.962-0.222-23.863,0.522c-8.893,0.838-17.816-0.054-26.638,0.935
			c-8.802,0.988-17.606,0.282-26.389,0.875c-0.586,0.04-1.144,0.398-1.731,0.55c-0.49,0.127-1.002,0.234-1.505,0.239
			c-7.599,0.073-15.199,0.114-22.798,0.212c-0.648,0.008-1.285,0.404-1.94,0.569c-0.418,0.106-0.858,0.165-1.289,0.169
			c-7.799,0.071-15.599,0.121-23.398,0.216c-0.542,0.007-1.075,0.353-1.623,0.498c-0.451,0.119-0.919,0.241-1.381,0.245
			c-7.799,0.077-15.599,0.121-23.398,0.223c-0.649,0.008-1.285,0.41-1.941,0.575c-0.457,0.115-0.936,0.184-1.406,0.192
			c-7.638,0.129-15.325-0.248-22.903,0.493c-9.044,0.885-18.12-0.06-27.092,0.946c-8.647,0.97-17.294,0.272-25.919,0.872
			c-0.536,0.037-1.045,0.388-1.581,0.544c-0.409,0.119-0.84,0.222-1.262,0.226c-7.799,0.076-15.599,0.13-23.398,0.207
			c-0.802,0.008-1.675-0.224-2.289,0.653c-0.141,0.201-0.681,0.199-1.026,0.166c-1.374-0.13-1.979,0.952-2.923,1.573
			c-0.718,0.472-0.465,2.035-1.83,1.592c0-11.04,0-22.08,0-33.12C257.225-0.22,514.905-0.22,772.585-0.22z"/>
		<path style="display:none;fill:#FFFFFF;" d="M-0.455,41.78c0.707-0.115,0.896,0.247,0.903,0.889c0.021,1.999,0.049,4,0.148,5.996
			c0.022,0.451,0.344,0.885,0.52,1.33c0.113,0.286,0.277,0.572,0.304,0.869c0.074,0.795,0.057,1.599,0.129,2.395
			c0.381,4.213,0.435,8.496,1.297,12.61c0.538,2.567,0.394,5.102,0.783,7.622c0.082,0.529,0.463,1.006,0.661,1.524
			c0.124,0.324,0.219,0.678,0.23,1.021c0.053,1.599,0.049,3.199,0.113,4.797c0.033,0.828-0.257,1.747,0.678,2.374
			c0.198,0.132,0.153,0.675,0.163,1.03c0.048,1.719,0.041,3.44,0.126,5.157C5.645,90.3,5.308,91.33,6.331,92.01
			c0.17,0.113,0.114,0.601,0.121,0.916c0.04,1.639,0.046,3.279,0.106,4.918c0.029,0.795-0.224,1.683,0.701,2.25
			c0.18,0.111,0.167,0.593,0.182,0.907c0.063,1.278-0.067,2.59,0.181,3.829c0.724,3.626,0.53,7.369,1.222,10.937
			c0.506,2.608,0.4,5.191,0.792,7.757c0.075,0.49,0.43,0.931,0.618,1.41c0.126,0.32,0.249,0.665,0.261,1.002
			c0.056,1.598,0.045,3.2,0.116,4.797c0.036,0.824,0.008,1.575,0.605,2.408c0.515,0.718,0.331,2.003,0.299,3.033
			c-0.039,1.263,0.782,1.918,1.557,2.664c0.365,0.351,0.666,0.775,0.958,1.193c1.26,1.805,3.156,1.843,5.067,1.856
			c3.36,0.023,6.719,0.032,10.078,0.098c0.457,0.009,0.898,0.348,1.363,0.472c0.482,0.128,0.983,0.255,1.477,0.256
			c16.599,0.045,33.198,0.068,49.798,0.108c10.919,0.026,21.839,0.063,32.758,0.138c0.683,0.005,1.357,0.413,2.047,0.588
			c0.378,0.096,0.78,0.131,1.171,0.132c19.159,0.045,38.318,0.079,57.477,0.124c8.239,0.019,16.479,0.051,24.718,0.111
			c0.506,0.004,1.001,0.339,1.516,0.457c0.57,0.13,1.157,0.261,1.737,0.263c12.039,0.041,24.079,0.06,36.118,0.091
			c15.599,0.04,31.198,0.081,46.797,0.15c0.498,0.002,0.985,0.357,1.493,0.485c0.528,0.133,1.074,0.265,1.613,0.268
			c16.038,0.086,32.077,0.153,48.115,0.231c11.599,0.056,23.224-0.345,34.79,0.305c14.326,0.805,28.64,0.392,42.957,0.609
			c14.316,0.217,28.657-0.268,42.948,0.384c9.566,0.437,19.116,0.33,28.671,0.515c9.556,0.185,19.118,0.084,28.678,0.127
			c9.599,0.043,19.198,0.103,28.796,0.188c0.454,0.004,0.898,0.344,1.361,0.475c0.442,0.124,0.903,0.253,1.356,0.255
			c17.799,0.047,35.598,0.073,53.398,0.115c9.759,0.023,19.519,0.061,29.278,0.126c0.504,0.003,1,0.342,1.512,0.477
			c0.45,0.119,0.918,0.242,1.379,0.243c17.919,0.046,35.838,0.073,53.758,0.115c9.599,0.023,19.199,0.061,28.798,0.126
			c0.502,0.003,0.997,0.335,1.505,0.482c0.374,0.108,0.763,0.233,1.145,0.234c17.199,0.037,34.398,0.067,51.598,0.06
			c0.502,0,0.997-0.413,1.508-0.598c0.365-0.132,0.751-0.208,1.129-0.305c0.606-0.155,1.528,0.335,1.653-0.817
			c0.006-0.051,0.205-0.108,0.318-0.117c1.825-0.154,2.469-1.808,3.656-2.784c0.711-0.584,0.691-1.553,1.111-1.911
			c1.484-1.265,0.529-2.858,0.926-4.224c0.122-0.419,0.388-0.795,0.549-1.205c0.124-0.316,0.252-0.652,0.267-0.984
			c0.056-1.278,0.036-2.56,0.105-3.837c0.044-0.827-0.235-1.783,0.782-2.318c0.131-0.069,0.122-0.443,0.142-0.678
			c0.051-0.597,0.057-1.199,0.126-1.794c0.184-1.583-0.25-3.246,0.754-4.736c0.273-0.405,0.111-1.094,0.175-1.65
			c0.213-1.825,0.013-3.642,0.736-5.485c0.569-1.449,0.235-3.239,0.395-4.869c0.053-0.534,0.414-1.035,0.606-1.561
			c0.117-0.321,0.244-0.659,0.257-0.993c0.055-1.318,0.04-2.64,0.104-3.957c0.037-0.76-0.185-1.62,0.714-2.137
			c0.149-0.086,0.128-0.515,0.137-0.787c0.039-1.239,0.005-2.483,0.107-3.717c0.077-0.928-0.337-2.022,0.767-2.7
			c0.145-0.089,0.094-0.527,0.102-0.804c0.04-1.399,0.054-2.799,0.111-4.197c0.028-0.683-0.183-1.464,0.713-1.862
			c0.152-0.067,0.175-0.503,0.195-0.773c0.065-0.877,0.065-1.759,0.156-2.633c0.131-1.272-0.215-2.621,0.717-3.776
			c0.23-0.284,0.092-0.855,0.149-1.291c0.257-1.979,0.006-3.967,0.776-5.96c0.562-1.454,0.228-3.242,0.39-4.871
			c0.053-0.532,0.421-1.029,0.621-1.551c0.108-0.284,0.224-0.585,0.236-0.882c0.051-1.319,0.034-2.64,0.104-3.957
			c0.042-0.795-0.201-1.7,0.727-2.254c0.149-0.089,0.121-0.517,0.13-0.79c0.048-1.479,0.061-2.959,0.129-4.437
			c0.031-0.68-0.183-1.465,0.695-1.881c0.141-0.067,0.134-0.512,0.143-0.784c0.038-1.199,0.009-2.402,0.097-3.597
			c0.069-0.93-0.295-2.002,0.801-2.682c0.197-0.122,0.156-0.674,0.175-1.03c0.066-1.238-0.173-2.575,0.218-3.695
			c0.938-2.688,0.369-5.565,1.124-8.169c0.628-2.168,0.485-4.303,0.799-6.437c0.068-0.467,0.38-0.895,0.558-1.349
			c0.124-0.316,0.285-0.642,0.301-0.97c0.059-1.198,0.022-2.401,0.103-3.597c0.061-0.906-0.282-1.945,0.749-2.613
			c0.149-0.096,0.105-0.523,0.113-0.797c0.038-1.319,0.015-2.642,0.111-3.957c0.059-0.817-0.285-1.788,0.741-2.358
			c0.162-0.09,0.12-0.599,0.124-0.915c0.021-1.48,0.057-2.96,0.022-4.439c-0.014-0.598,0.321-1.409-0.696-1.629
			c-0.089-0.019-0.151-0.349-0.158-0.537c-0.049-1.206-0.888-1.792-1.755-2.428c-0.573-0.42-0.944-1.108-1.501-1.56
			c-0.294-0.239-0.791-0.316-1.195-0.313c-0.781,0.006-0.887-0.346-0.663-0.973c2.16,0,4.32,0,6.48,0c0,50.48,0,100.96,0,151.44
			c-266.48,0-532.96,0-799.44,0C-0.455,114.74-0.455,78.26-0.455,41.78z"/>
	</g>
</g>
</svg>
