<?xml version="1.0" encoding="UTF-8" ?>
<!DOCTYPE svg PUBLIC "-//W3C//DTD SVG 1.1//EN" "http://www.w3.org/Graphics/SVG/1.1/DTD/svg11.dtd">
<svg width="503pt" height="92pt" viewBox="0 0 503 92" version="1.1" xmlns="http://www.w3.org/2000/svg">
<path fill="transparent" d=" M 0.00 0.00 L 493.00 0.00 C 403.35 3.53 313.66 6.51 224.00 9.84 C 152.68 12.40 81.37 14.99 10.06 17.55 C 6.61 17.87 2.33 16.82 0.00 20.10 L 0.00 0.00 Z" />
<path fill="#85bce2" d=" M 493.00 0.00 L 499.88 0.00 C 500.71 1.32 501.78 2.48 503.00 3.47 L 503.00 6.10 C 496.45 32.66 490.35 59.32 483.89 85.90 C 483.16 89.38 479.74 91.39 476.47 92.00 L 470.50 92.00 C 316.63 88.87 162.74 86.17 8.87 83.14 C 6.47 83.38 4.48 81.26 4.35 78.96 C 2.75 60.72 1.73 42.42 0.00 24.19 L 0.00 20.10 C 2.33 16.82 6.61 17.87 10.06 17.55 C 81.37 14.99 152.68 12.40 224.00 9.84 C 313.66 6.51 403.35 3.53 493.00 0.00 Z" />
<path fill="#ffffff" d=" M 499.88 0.00 L 503.00 0.00 L 503.00 3.47 C 501.78 2.48 500.71 1.32 499.88 0.00 Z" />
<path fill="transparent" d=" M 483.89 85.90 C 490.35 59.32 496.45 32.66 503.00 6.10 L 503.00 92.00 L 476.47 92.00 C 479.74 91.39 483.16 89.38 483.89 85.90 Z" />
<path fill="transparent" d=" M 0.00 24.19 C 1.73 42.42 2.75 60.72 4.35 78.96 C 4.48 81.26 6.47 83.38 8.87 83.14 C 162.74 86.17 316.63 88.87 470.50 92.00 L 0.00 92.00 L 0.00 24.19 Z" />
</svg>
