<?xml version="1.0" standalone="no"?>
<!DOCTYPE svg PUBLIC "-//W3C//DTD SVG 20010904//EN"
 "http://www.w3.org/TR/2001/REC-SVG-20010904/DTD/svg10.dtd">
<svg version="1.0" xmlns="http://www.w3.org/2000/svg"
 width="801.000000pt" height="122.000000pt" viewBox="0 0 801.000000 122.000000"
 preserveAspectRatio="xMidYMid meet">
<metadata>
Created by potrace 1.13, written by Peter Selinger 2001-2015
</metadata>
<g transform="translate(0.000000,122.000000) scale(0.100000,-0.100000)"
fill="#ffffff" stroke="none">
<path d="M3891 1100 c-3745 -115 -3854 -119 -3873 -138 -20 -20 -20 -21 17
-433 36 -407 37 -414 61 -437 22 -19 36 -22 102 -22 42 0 1749 -16 3792 -36
2608 -25 3726 -32 3751 -25 72 22 68 7 173 599 54 298 94 552 91 562 -12 37
-56 50 -162 49 -54 -1 -1832 -55 -3952 -119z"/>
</g>
</svg>
